<svg width="20" height="30" viewBox="0 0 20 30" fill="none" xmlns="http://www.w3.org/2000/svg">
<path d="M11.2468 6.25C12.0598 7.38815 12.4968 8.75188 12.4968 10.1506V11.5C12.9253 11.5 13.3414 11.3568 13.6791 11.0931C14.0168 10.8294 14.2567 10.4605 14.3606 10.0448L14.4968 9.5L14.8663 9.9434C15.4621 10.6583 15.7854 11.561 15.7789 12.4915C15.7725 13.4221 15.4367 14.3202 14.8311 15.0268C14.6041 15.2915 14.4855 15.6322 14.4988 15.9806C14.5122 16.3291 14.6565 16.6596 14.9031 16.9062C15.0407 17.0439 15.2059 17.151 15.3877 17.2205C15.5696 17.29 15.7641 17.3203 15.9584 17.3096C16.1528 17.2988 16.3427 17.2471 16.5158 17.158C16.6889 17.0688 16.8412 16.9441 16.9628 16.7921L17.9968 15.5L18.9968 18C19.4503 19.5115 19.486 21.1177 19.1002 22.6479C18.7144 24.1781 17.9215 25.5753 16.8056 26.6912L16.6795 26.8173C14.9619 28.535 12.6322 29.5 10.2031 29.5H9.1828C7.6011 29.5 6.0464 29.0904 4.67 28.3111C3.29359 27.5318 2.14247 26.4094 1.3287 25.0531C0.354282 23.4291 -0.092738 21.5429 0.049202 19.6542C0.191142 17.7656 0.915052 15.9674 2.12127 14.5072L6.169 9.6073C6.5679 9.1244 6.8242 8.53994 6.9093 7.91945C6.9943 7.29897 6.9046 6.66707 6.6503 6.09475C6.3276 5.36877 6.2719 4.55208 6.4932 3.78904C6.7144 3.026 7.1983 2.36575 7.8593 1.925L9.9968 0.5V2.34944C9.9968 3.74812 10.4339 5.11185 11.2468 6.25Z" fill="url(#paint0_linear_1_96)"/>
<defs>
<linearGradient id="paint0_linear_1_96" x1="9.6944" y1="0.5" x2="9.6944" y2="29.5" gradientUnits="userSpaceOnUse">
<stop stop-color="#FF9159"/>
<stop offset="0.6875" stop-color="#FF7631"/>
<stop offset="1" stop-color="#FF6A1F"/>
</linearGradient>
</defs>
</svg>
